<?xml version="1.0" standalone="no"?>
<!DOCTYPE svg PUBLIC "-//W3C//DTD SVG 20010904//EN"
 "http://www.w3.org/TR/2001/REC-SVG-20010904/DTD/svg10.dtd">
<svg version="1.0" xmlns="http://www.w3.org/2000/svg"
 width="512.000000pt" height="512.000000pt" viewBox="0 0 512.000000 512.000000"
 preserveAspectRatio="xMidYMid meet">

<g transform="translate(0.000000,512.000000) scale(0.100000,-0.100000)"
fill="#000000" stroke="none">
<path d="M610 2560 l0 -2560 1950 0 1950 0 0 560 0 560 -1320 0 -1320 0 0 505
0 505 1185 0 1185 0 0 550 0 550 -1185 0 -1185 0 0 385 0 385 1275 0 1275 0 0
560 0 560 -1905 0 -1905 0 0 -2560z m3510 2000 l0 -260 -1275 0 -1275 0 0
-685 0 -685 1185 0 1185 0 0 -250 0 -250 -1185 0 -1185 0 0 -805 0 -805 1320
0 1320 0 0 -260 0 -260 -1650 0 -1650 0 0 2260 0 2260 1605 0 1605 0 0 -260z"/>
</g>
</svg>
